<?xml version="1.0" encoding="utf-8"?>
<!-- Generator: Adobe Illustrator 23.0.2, SVG Export Plug-In . SVG Version: 6.00 Build 0)  -->
<svg version="1.1" id="Layer_1" xmlns="http://www.w3.org/2000/svg" xmlns:xlink="http://www.w3.org/1999/xlink" x="0px" y="0px"
	 viewBox="0 0 902 445" style="enable-background:new 0 0 902 445;" xml:space="preserve">
<style type="text/css">
	.st0{fill:#4D4D4D;}
</style>
<g>
	<g>
		<g>
			<path class="st0" d="M316.96,358.9c5.16-10.89-6.04-18.72-15.94-18.4c-12.1,0.4-23.42,7.17-31.02,16.34
				c-8.08,9.75-15.1,23.61-13.2,36.59c2.09,14.34,15.91,20.95,29,16.28c7.21-2.57,13.71-7.58,18.93-13.12
				c5.69-6.04,9.26-12.62,13.08-19.84c-1.3-0.76-2.6-1.52-3.9-2.28c-2.95,6.66-6.6,14.51-2.25,21.42c3.63,5.78,10.3,6.29,15.62,2.5
				c7.05-5.02,12.13-12.89,18.72-18.55c2.21-1.9,4.54-3.64,7.01-5.17c1.53-0.95,4.61-3.34,6.46-3.26
				c7.28,0.31,2.33,12.14,0.69,15.91c-1.78,4.06,3.61,7.49,6.08,3.55c3.83-6.11,8.27-13.79,15.51-16.3
				c7.85-2.72,16.42,2.55,24.59,1.44c9.99-1.35,28.81-12.69,20.87-25.02c-0.75-1.16-2.6-0.43-2.25,0.95
				c2.11,8.21-8.97,14.95-15.58,16.61c-7.51,1.88-14.74-1.17-22.24-1.29c-12.93-0.21-20.9,9.91-26.98,20.06
				c2.15,0.9,4.29,1.81,6.44,2.71c2.13-5.85,4.91-16.02,0.39-21.46c-5.03-6.05-13.83,0.2-18.37,3.57
				c-7.28,5.39-13.28,11.98-19.34,18.65c-3.62,3.98-9.77,9.39-14.13,3.07c-3.72-5.38-0.13-12.27,2.68-17.11
				c1.48-2.54-2.28-4.66-3.9-2.28c-6.42,9.47-17.29,17.23-27.47,22.16c-4.7,2.28-11.56,4.96-15.69,0.26
				c-4.03-4.59-2.86-11.71-1.34-17.02c2.8-9.76,8.59-19.06,16.7-25.27c4.02-3.08,8.74-5.4,13.72-6.41
				c5.89-1.19,16.93,0.73,13.86,9.32C313.01,359.41,316.09,360.74,316.96,358.9L316.96,358.9z"/>
		</g>
	</g>
	<g>
		<g>
			<path class="st0" d="M460.85,293.61c-4.52,10.25-9.65,20.37-13.17,31.02c-3.68,11.16-8.55,21.77-13.77,32.3
				c-10.23,20.63-24.34,39.19-39.44,56.45c-0.52,0.59,0.25,1.32,0.85,0.85c18.08-14.45,30.69-33.5,43.1-52.7
				c6.27-9.7,11.47-20.06,17.84-29.66c6.56-9.89,10.99-20.88,15.82-31.68C475.48,292.59,464.22,285.98,460.85,293.61L460.85,293.61z
				"/>
		</g>
	</g>
	<g>
		<g>
			<path class="st0" d="M425.42,338.35c-0.24-3.74,5.44-5.52,8.19-6.78c2.95-1.36,5.81-2.83,8.91-3.83
				c6.72-2.18,13.98-2.58,20.97-3.3c12.34-1.27,25.37-2.49,35.45-10.39c1.61-1.26-0.45-3.25-2-2.6
				c-15.13,6.41-30.76,6.85-46.84,8.54c-10.7,1.12-35.14,2.32-33.88,18.36C416.67,344.21,425.81,344.3,425.42,338.35L425.42,338.35z
				"/>
		</g>
	</g>
</g>
<g>
	<g>
		<path class="st0" d="M153.82,86.38c11.21,13.44,21.04,29,27.58,45.28c6.6,16.4,10.76,33.78,14.06,51.11
			c3.45,18.06,5.72,35.95,6.46,54.33c0.8,19.72,0.42,39.46-0.08,59.19c-0.53,20.49-1.59,40.99-1.5,61.49c0.01,1.83,2.69,1.79,2.81,0
			c2.7-38.87,6.51-77.75,6.71-116.74c0.1-18.89-1.29-37.43-4.21-56.09c-2.84-18.18-5.44-36.5-10.95-54.11
			c-6.45-20.59-16.74-38.25-30.64-54.71C158.03,68.99,147.89,79.28,153.82,86.38L153.82,86.38z"/>
	</g>
</g>
<g>
	<g>
		<path class="st0" d="M315.12,169.31c-10.46,11.16-16.93,25.62-19.42,40.64c-2.08,12.59-1.54,31.75,12.81,37.07
			c15.53,5.75,29.46-9.04,38.09-19.96c9.67-12.23,17.92-26.67,20.57-42.19c0.42-2.44-3.13-4.5-4.37-1.84
			c-6.39,13.77-12.88,31.08-6.8,46.05c2.16,5.31,6.05,10.44,11.84,11.99c5.52,1.47,11.3-1.08,14.16-5.9
			c1.36-2.29-1.75-4.63-3.64-2.81c-10.07,9.71-18.22-4.74-18.92-13.92c-0.86-11.28,2.64-22.94,7.49-32.99
			c-1.37-0.8-2.75-1.61-4.12-2.41c-5.36,11.4-10.56,23.13-18.74,32.86c-6.62,7.88-17.84,19.68-28.99,19.86
			c-11.96,0.19-12.47-18.31-11.81-26.43c1.1-13.41,6.37-26.5,15.24-36.63C320.51,170.39,317.25,167.05,315.12,169.31L315.12,169.31z
			"/>
	</g>
</g>
<g>
	<g>
		<path class="st0" d="M445.7,22.73c-4.99,18.47-9.07,37.15-14.29,55.57c-5.12,18.09-10.64,36.15-16.37,54.06
			c-11.6,36.23-23.03,72.55-36.45,108.15c-7.66,20.33-16.58,40.44-23.38,61.06c-0.16,0.49,0.59,0.81,0.84,0.35
			c8.94-16.91,15.85-35.15,23.26-52.77c7.29-17.34,14.32-34.79,21.46-52.2c14.61-35.59,27.79-71.67,40.07-108.13
			c6.93-20.57,14.8-40.87,21.08-61.63C465.03,16.84,448.52,12.28,445.7,22.73L445.7,22.73z"/>
	</g>
</g>
<g>
	<g>
		<path class="st0" d="M438.17,167.18c-8.12,14.62-16.57,29.06-24.11,44c-7.53,14.92-15.84,29.59-22.86,44.75
			c-0.46,1,0.84,2.28,1.66,1.28c10.39-12.78,19.56-26.85,28.81-40.46c9.59-14.11,17.91-28.99,26.15-43.92
			C451.3,166.52,441.67,160.88,438.17,167.18L438.17,167.18z"/>
	</g>
</g>
<g>
	<g>
		<path class="st0" d="M457,140.05c0.06,0,0.06-0.1,0-0.1C456.94,139.95,456.94,140.05,457,140.05L457,140.05z"/>
	</g>
</g>
<g>
	<g>
		<path class="st0" d="M455,141.05c0.06,0,0.06-0.1,0-0.1C454.94,140.95,454.94,141.05,455,141.05L455,141.05z"/>
	</g>
</g>
<g>
	<g>
		<path class="st0" d="M455,144.05c0.06,0,0.06-0.1,0-0.1C454.94,143.95,454.94,144.05,455,144.05L455,144.05z"/>
	</g>
</g>
<g>
	<g>
		<path class="st0" d="M472.45,170.3c-2.34,13.09-7.2,25.17-14.17,36.48c1.72,0.73,3.44,1.45,5.16,2.18
			c3.98-9.73,8.44-20.72,17.7-26.66c4.53-2.91,12.29-4.91,16.15,0.01c2.83,3.61,3.45,8.47,6.7,11.87
			c7.95,8.31,23.76,2.27,33.03-0.32c12.4-3.46,25.49-6.02,37.15-11.65c0.22-0.11,0.06-0.44-0.16-0.39
			c-14.8,3.34-28.71,7.39-44.02,7.83c-3.68,0.1-7.37-0.18-11.06-0.1c-2.95,0.06-6.3,0.55-8.63-1.7c-3.61-3.49-3.98-9.1-8.1-12.42
			c-8.12-6.55-19.46-1.61-26.43,4.21c-8.24,6.89-13.29,17.47-17.49,27.13c-1.42,3.27,2.86,5.98,4.88,2.85
			c7.4-11.5,12.12-24.46,14.31-37.95C477.99,168.42,473.04,166.99,472.45,170.3L472.45,170.3z"/>
	</g>
</g>
<g>
	<g>
		<path class="st0" d="M637.39,45.93c2.8,32.78,1.27,66.34-5.82,98.47c-7.07,32.04-16.7,63.6-26.34,94.94
			c-5.42,17.62-10.94,35.08-19.01,51.71c-0.25,0.52,0.48,0.97,0.79,0.46c8.32-13.46,13.96-28.38,19.52-43.13
			c6.06-16.09,12.09-32.19,17.69-48.44c10.96-31.83,18.45-65.05,22.82-98.43c2.49-19.02,2.22-37.85-0.45-56.83
			C645.85,39.51,636.95,40.69,637.39,45.93L637.39,45.93z"/>
	</g>
</g>
<g>
	<g>
		<path class="st0" d="M791.56,165.53c-6.75,17.77-17.88,33.41-32.07,45.9c-1.76,1.55,0.48,4.04,2.39,3.09
			c19.23-9.55,33.5-25.99,41.21-45.82C805.87,161.55,794.27,158.38,791.56,165.53L791.56,165.53z"/>
	</g>
</g>
<g>
	<g>
		<path class="st0" d="M866.09,160.16c3.01-13.38-21.45-5.41-26.47-3.33c-6.54,2.71-13.61,5.43-18.95,10.27
			c-4.56,4.13-7.24,11.32-3.32,16.81c4.76,6.66,11.71,2.64,17.57,0.15c3.57-1.52,8.49-2.82,12.3-1.4c8.34,3.09,2.23,11.8-2.69,14.6
			c-7.19,4.1-16.02,5.14-24.16,5.11c-3.24-0.01-8.53,0.19-10.26-3.13c-1.48-2.85,0.64-4.7,1.52-7.23c0.57-1.64-0.9-3-2.38-3.13
			c-5.23-0.45-8.74,6.62-8.55,11.14c0.29,7.21,7.9,10.43,14.02,11c7.77,0.73,15.85-0.89,22.78-4.47
			c5.77-2.98,12.89-7.41,15.68-13.51c2.08-4.54,1.06-10.06-3.55-12.5c-2.42-1.28-5.42-1.55-8.11-1.54
			c-3.92,0.03-7.47,0.09-11.42-0.31c-1.16-0.12-4.25,0.34-4.66-1.16c-0.28-0.99,1.43-2.88,1.88-3.57c2.4-3.66,4.73-7.08,8.1-9.95
			c3.5-3,7.1-4.79,11.53-6.13c1.87-0.56,17.16-4.43,15.9,1.38C862.37,161.38,865.61,162.28,866.09,160.16L866.09,160.16z"/>
	</g>
</g>
<g>
	<g>
		<path class="st0" d="M602.76,83.23c11.56-6.36,23.44-11.57,36.06-15.42c11.79-3.59,23.69-5.46,35.86-7.25
			c22.94-3.38,49.23-2.88,67.97,12.68c17.55,14.57,22.15,39.24,18.2,60.8c-4.08,22.31-14.58,43.45-27.3,62.05
			c-22.53,32.94-55.57,60.85-93.51,74.14c-19.72,6.91-40.85,10.29-61.74,8.54c-20.41-1.7-43.11-10.97-49.32-32.46
			c-1.92-6.65-1.52-13.23-1.14-20.04c0.37-6.51-0.15-12.9,2.02-19.14c4.3-12.37,11.93-23.75,20.28-33.72
			c17.72-21.17,40.69-37.21,63.36-52.59c1-0.68,0.09-2.29-0.96-1.64c-22.69,14-45.25,28.86-63.11,48.92
			c-8.06,9.05-15.07,19.05-20.67,29.82c-2.71,5.21-4.67,10.84-7.83,15.79c-3.35,5.25-5.29,10.86-6.14,17.03
			c-1.73,12.65,0.33,25.33,7.89,35.83c6.97,9.68,16.81,16.59,27.87,20.89c23.11,8.99,50.04,5.74,73.46-0.47
			c43.75-11.61,82.34-38.86,110.1-74.33c27.89-35.64,57.78-92.57,28.42-135.77c-16.68-24.55-47.3-32.37-75.49-29.51
			c-15.65,1.59-30.25,6.69-44.84,12.32c-14.3,5.52-28.31,12.27-41.59,19.92C598.27,80.95,600.38,84.54,602.76,83.23L602.76,83.23z"
			/>
	</g>
</g>
<g>
	<g>
		<path class="st0" d="M833.21,104.86c-2.52,13.55-16.15,18.96-25.9,26.53c-0.42,0.33-0.08,1.13,0.45,1.08
			c14.77-1.51,30.14-9.87,33.11-25.5C841.83,101.97,834.15,99.84,833.21,104.86L833.21,104.86z"/>
	</g>
</g>
<g>
	<g>
		<path class="st0" d="M449.01,139.01c0.01,1.02,0.17-0.76,0.01,0.23c-0.06,0.38-0.1,0.28,0.06-0.03c-0.14,0.28-0.29,0.55-0.48,0.8
			c0.31-0.42,0.08-0.21-0.14,0.05c-0.26,0.33,0.61-0.31-0.11,0.07c-0.1,0.06-0.86,0.36-0.39,0.22c0.26-0.11,0.21-0.11-0.13,0.02
			c-0.3,0.13-0.6,0.25-0.9,0.38c0.87-0.35-0.44,0.14-0.77,0.38c-1.96,1.36-2.53,4.76,0,5.99c5.11,2.49,10.39-3.18,10.37-8.1
			c-0.01-1.97-1.72-3.85-3.76-3.76C450.74,135.34,449,136.9,449.01,139.01L449.01,139.01z"/>
	</g>
</g>
<g>
	<g>
		<path class="st0" d="M150.19,139.74c5.96-12.49,16.51-21.49,27.74-29.18c11.37-7.79,23.43-14.47,35.77-20.59
			c24.92-12.35,52.05-20.9,79.6-24.75c14.02-1.96,29.51-3.18,42.75,2.86c11.92,5.43,19.44,15.75,20.26,28.94
			c0.83,13.56-3,27.1-7.67,39.68c-4.7,12.67-10.78,24.78-17.65,36.4c-13.99,23.68-31.53,44.83-49.75,65.35
			c-19.12,21.53-38.89,41.69-63.8,56.53c-22.79,13.58-48.57,23.69-74.91,27.53c-25.64,3.73-51.87-0.32-69.36-20.94
			c-20.43-24.08-25.43-58.86-20.36-89.24c5.17-30.99,20.83-58.57,41.54-81.83c0.57-0.64-0.36-1.58-0.94-0.94
			c-39.18,42.12-62.46,102.55-38.18,158.15c5.73,13.13,13.66,25.22,25.8,33.21c11.1,7.31,24.38,10.56,37.53,11.26
			c28.07,1.49,56.91-7.68,81.92-19.75c27.13-13.09,50.71-31.78,71.2-53.74c20.55-22.02,40.3-45.13,57.47-69.9
			c8.54-12.33,16.24-25.26,22.5-38.9c5.99-13.06,11.8-27.38,14-41.65c2.1-13.64,0.46-27.71-8.67-38.57
			c-8.96-10.66-22.77-15.56-36.27-16.85c-15.71-1.5-32.13,1.45-47.45,4.79c-14.7,3.2-29.15,7.65-43.01,13.49
			c-14,5.9-27.69,12.78-40.11,21.56c-11.83,8.36-23.64,16.85-32.8,28.23c-4.16,5.18-7.67,10.91-10.33,16.99
			C146.1,140.01,149.16,141.89,150.19,139.74L150.19,139.74z"/>
	</g>
</g>
</svg>
