<?xml version="1.0" encoding="utf-8"?>
<!-- Generator: Adobe Illustrator 23.0.2, SVG Export Plug-In . SVG Version: 6.00 Build 0)  -->
<svg version="1.1" id="Layer_1" xmlns="http://www.w3.org/2000/svg" xmlns:xlink="http://www.w3.org/1999/xlink" x="0px" y="0px"
	 viewBox="0 0 297 288" style="enable-background:new 0 0 297 288;" xml:space="preserve">
<style type="text/css">
	.st0{fill:#4D4D4D;}
</style>
<title>logo-v2</title>
<path class="st0" d="M39.9,143c12.8-6.6,27.1-10,41-13.6c13.5-3.5,27-6.8,40.8-9.1c28.6-4.6,58.3-4.1,86.9,0.1
	c6.8,0.9,13.6,2.2,20.2,3.8c5.5,1.4,13.6,3.3,16.4,8.9c3,6-5,13.1-9.2,16.5c-5,4.1-10.7,7.2-16.4,10.1c-24.6,12.5-50.4,22.7-77,30.3
	c-29.4,8.5-59.4,13.1-89.5,18.4c-0.4,0.1-0.3,0.8,0.1,0.8c29.8-0.8,59.9-7.5,88.4-15.8c28.7-8.3,56.7-19.1,83.6-32.1
	c9.4-4.6,24.4-12,26-23.8c1.6-11.3-12.5-16.1-21-18.2c-30.4-7.4-62.7-7.8-93.7-4c-17.2,2.2-34.2,5.6-50.8,10.1
	c-15.9,4.3-32,8.2-46.4,16.6c-0.3,0.2-0.3,0.6-0.1,0.9C39.4,143.1,39.7,143.1,39.9,143L39.9,143z"/>
<path class="st0" d="M115.4,66.1c-1.2,30-4.5,59.8-8.3,89.6c-1.9,14.9-4,29.8-7.3,44.4c-3.4,14.3-8.1,28.3-14,41.8
	c0,0.1,0.1,0.2,0.1,0.1c12.3-27,17.6-55.2,22.2-84.3c4.7-30.1,12.5-61,10.6-91.6c-0.1-0.9-0.9-1.6-1.8-1.5
	C116.1,64.6,115.5,65.3,115.4,66.1L115.4,66.1z"/>
<path class="st0" d="M201.5,31c-6.3,17.9-11.9,36.1-18.6,53.9s-13.6,35.3-20.4,52.9c-14.1,36.3-28.6,72.5-42,109
	c-0.1,0.1,0.2,0.3,0.3,0.1c15.1-35.6,29.1-71.7,43.5-107.6c7.2-17.9,14.3-35.8,21.6-53.6c7.2-17.5,14.9-35.3,18.3-54
	c0.2-0.8-0.3-1.5-1.1-1.7C202.4,29.9,201.7,30.3,201.5,31L201.5,31z"/>
<path class="st0" d="M40,143.3c24-12,52.6-17.7,79.4-17.5c5.8,0,14-0.6,19.1,2.6c8.5,5.4-6,16.4-10.4,19.8
	c-12,9.5-26.1,16.1-39.9,22.6c-0.8,0.4-0.1,1.6,0.7,1.3c13-5.5,26-11.2,37.6-19.3c6.2-4.3,22.6-14.9,16.8-24.3
	c-4.9-8-20.2-7-28.2-6.8c-12.7,0.3-25.3,2.8-37.6,6c-13.2,3.4-26,8.3-38,14.7C39,142.8,39.5,143.6,40,143.3L40,143.3z"/>
<path class="st0" d="M229.1,120.8c-13.3,2-28.7,5-38.7,14.8c-2.6,2.5-7.3,7.7-5.5,11.7c2.4,5.2,11.1,2.5,14.7,0.5
	c1.2-0.6,0.4-2.7-0.9-2.2c-1,0.5-2.1,0.8-3.2,1.1c-3.4,0.9-4.4,1.1-6.1-1.8s-1.3-1.7-0.4-3.7c0.6-1.1,1.4-2.2,2.3-3.1
	c2.9-3.1,6.3-5.6,10.1-7.5c8.7-4.6,18.5-6.9,28.1-8.6C230.3,121.9,229.9,120.6,229.1,120.8L229.1,120.8z"/>
<path class="st0" d="M198.3,142.1c3.2-1.8,18.9-7.7,15.2,2.1c-1.3,3.3-4.6,6.5-7.1,9c-6.1,6.2-13.4,11.2-20.8,15.7
	c-14,8.4-29.4,14.2-43.4,22.4c-0.3,0.1,0,0.5,0.2,0.4c19.4-8.3,39.4-17.3,56.5-29.6c6.5-4.6,15.6-11.3,18-19.4
	c3.4-11.1-15.8-3.9-19.3-1.7c-0.3,0.2-0.4,0.6-0.2,0.9C197.5,142.2,197.9,142.3,198.3,142.1L198.3,142.1z"/>
</svg>
