<svg id="Layer_1" data-name="Layer 1" xmlns="http://www.w3.org/2000/svg" viewBox="0 0 821.01 397.57"><title>dulin-dis-sign-v1</title><path d="M317,358.9c5.16-10.89-6-18.72-15.94-18.4-12.09.4-23.41,7.17-31,16.34-8.08,9.75-15.1,23.61-13.21,36.59,2.1,14.34,15.91,20.95,29,16.29,7.21-2.57,13.72-7.58,18.93-13.12,5.69-6,9.26-12.62,13.08-19.84l-3.9-2.28c-3,6.66-6.6,14.51-2.26,21.42,3.64,5.78,10.3,6.29,15.62,2.5,7.06-5,12.13-12.89,18.73-18.55a56,56,0,0,1,7-5.17c1.53-.95,4.61-3.35,6.46-3.27,7.28.32,2.33,12.15.68,15.91-1.78,4.07,3.61,7.49,6.08,3.56,3.83-6.12,8.27-13.79,15.51-16.3,7.85-2.72,16.42,2.55,24.59,1.45,10-1.35,28.81-12.69,20.87-25A1.24,1.24,0,0,0,425,352c2.11,8.21-9,14.95-15.58,16.61-7.51,1.88-14.74-1.17-22.24-1.29-12.93-.21-20.9,9.91-27,20.05l6.44,2.72c2.13-5.85,4.91-16,.38-21.46-5-6.05-13.82.19-18.37,3.56-7.27,5.4-13.27,12-19.34,18.65-3.62,4-9.77,9.39-14.13,3.08-3.72-5.39-.13-12.27,2.68-17.11,1.48-2.54-2.28-4.67-3.9-2.28-6.42,9.47-17.29,17.23-27.47,22.16-4.71,2.28-11.56,5-15.69.26s-2.86-11.72-1.34-17c2.8-9.76,8.58-19.06,16.7-25.27a34,34,0,0,1,13.71-6.41c5.9-1.2,16.93.72,13.86,9.32-.67,1.89,2.41,3.22,3.28,1.38Z" transform="translate(-45.33 -16.81)"/><path d="M460.85,293.61c-4.52,10.26-9.65,20.37-13.16,31a246.61,246.61,0,0,1-13.78,32.3c-10.23,20.62-24.33,39.19-39.43,56.44a.6.6,0,0,0,.84.85c18.09-14.45,30.69-33.5,43.1-52.71,6.27-9.69,11.47-20.06,17.84-29.66,6.56-9.89,11-20.89,15.83-31.68,3.39-7.59-7.87-14.2-11.24-6.57Z" transform="translate(-45.33 -16.81)"/><path d="M425.42,338.35c-.24-3.74,5.45-5.52,8.19-6.78a81.29,81.29,0,0,1,8.91-3.83c6.72-2.19,14-2.58,21-3.3,12.34-1.28,25.37-2.5,35.45-10.39,1.61-1.27-.45-3.25-2-2.6-15.13,6.41-30.76,6.86-46.84,8.54-10.7,1.12-35.15,2.32-33.89,18.36.46,5.86,9.6,5.95,9.21,0Z" transform="translate(-45.33 -16.81)"/><path d="M153.82,86.38a172.29,172.29,0,0,1,27.58,45.28c6.6,16.4,10.76,33.78,14.07,51.11a367.51,367.51,0,0,1,6.46,54.33c.8,19.72.42,39.47-.08,59.19-.53,20.49-1.59,41-1.5,61.49a1.41,1.41,0,0,0,2.81,0c2.7-38.87,6.5-77.75,6.71-116.74A348.77,348.77,0,0,0,205.66,185c-2.85-18.17-5.44-36.5-10.95-54.11-6.45-20.59-16.74-38.24-30.65-54.7-6-7.15-16.17,3.14-10.24,10.24Z" transform="translate(-45.33 -16.81)"/><path d="M315.12,169.31c-10.46,11.16-16.93,25.62-19.41,40.64-2.09,12.59-1.54,31.75,12.81,37.07,15.52,5.75,29.46-9,38.08-20,9.67-12.23,17.93-26.67,20.57-42.19.41-2.44-3.14-4.49-4.37-1.84-6.38,13.78-12.88,31.09-6.79,46.06,2.16,5.3,6,10.44,11.83,12a12.75,12.75,0,0,0,14.16-5.9c1.36-2.29-1.75-4.63-3.64-2.81-10.07,9.71-18.22-4.74-18.92-13.92-.86-11.28,2.64-22.94,7.49-33L362.8,183c-5.36,11.4-10.56,23.13-18.73,32.86-6.62,7.88-17.85,19.68-29,19.86-11.95.19-12.47-18.31-11.8-26.43a63.78,63.78,0,0,1,15.23-36.63c2-2.3-1.25-5.64-3.38-3.38Z" transform="translate(-45.33 -16.81)"/><path d="M445.7,22.73c-5,18.48-9.08,37.15-14.29,55.57-5.13,18.1-10.64,36.15-16.38,54.06-11.6,36.23-23,72.55-36.45,108.16C370.92,260.85,362,281,355.2,301.58a.46.46,0,0,0,.83.35C365,285,371.88,266.78,379.3,249.16c7.29-17.34,14.32-34.8,21.46-52.2,14.6-35.59,27.79-71.67,40.06-108.12C447.75,68.27,455.62,48,461.9,27.2c3.13-10.36-13.38-14.92-16.2-4.47Z" transform="translate(-45.33 -16.81)"/><path d="M438.17,167.18c-8.12,14.62-16.57,29.06-24.1,44s-15.85,29.59-22.86,44.75c-.47,1,.84,2.28,1.65,1.27,10.39-12.77,19.56-26.85,28.81-40.46,9.6-14.11,17.92-29,26.16-43.92,3.47-6.3-6.16-11.94-9.66-5.64Z" transform="translate(-45.33 -16.81)"/><path d="M457,140.05a.05.05,0,0,0,0-.1.05.05,0,0,0,0,.1Z" transform="translate(-45.33 -16.81)"/><path d="M455,141.05a.05.05,0,0,0,0-.1.05.05,0,0,0,0,.1Z" transform="translate(-45.33 -16.81)"/><path d="M455,144.05a.05.05,0,0,0,0-.1.05.05,0,0,0,0,.1Z" transform="translate(-45.33 -16.81)"/><path d="M472.45,170.3a104.24,104.24,0,0,1-14.17,36.48l5.16,2.18c4-9.73,8.44-20.72,17.7-26.66,4.53-2.91,12.29-4.91,16.14,0,2.83,3.61,3.45,8.47,6.7,11.87,7.94,8.31,23.76,2.27,33-.32,12.4-3.45,25.49-6,37.15-11.65.23-.1.07-.43-.16-.38-14.79,3.34-28.71,7.39-44,7.83-3.68.1-7.37-.18-11.06-.1-2.94.06-6.3.55-8.62-1.7-3.61-3.48-4-9.09-8.1-12.42-8.12-6.55-19.46-1.62-26.44,4.21-8.24,6.89-13.28,17.47-17.48,27.13-1.42,3.27,2.86,6,4.87,2.85a99,99,0,0,0,14.31-37.95c.53-3.26-4.42-4.69-5-1.38Z" transform="translate(-45.33 -16.81)"/><path d="M637.39,45.93c2.8,32.79,1.27,66.34-5.82,98.48s-16.7,63.6-26.34,94.93c-5.42,17.63-10.94,35.08-19,51.71a.46.46,0,0,0,.79.46c8.31-13.46,14-28.37,19.51-43.13,6.06-16.09,12.1-32.19,17.69-48.44A502.52,502.52,0,0,0,647,101.51a209.13,209.13,0,0,0-.45-56.82c-.73-5.18-9.64-4-9.19,1.24Z" transform="translate(-45.33 -16.81)"/><path d="M791.56,165.53a116.27,116.27,0,0,1-32.07,45.9c-1.76,1.55.48,4,2.39,3.09,19.22-9.55,33.49-26,41.21-45.81,2.78-7.16-8.82-10.33-11.53-3.18Z" transform="translate(-45.33 -16.81)"/><path d="M866.09,160.16c3-13.38-21.45-5.41-26.47-3.33-6.54,2.71-13.62,5.43-19,10.27-4.56,4.13-7.24,11.32-3.32,16.81,4.76,6.66,11.71,2.63,17.57.15,3.57-1.52,8.49-2.82,12.3-1.41,8.34,3.09,2.22,11.8-2.69,14.6-7.2,4.1-16,5.14-24.16,5.11-3.24,0-8.53.19-10.26-3.14-1.48-2.85.64-4.69,1.52-7.23.57-1.63-.9-3-2.38-3.12-5.23-.46-8.74,6.62-8.56,11.14.29,7.21,7.9,10.43,14,11a41.72,41.72,0,0,0,22.78-4.47c5.77-3,12.89-7.41,15.68-13.51,2.08-4.54,1.06-10.06-3.55-12.5a17.36,17.36,0,0,0-8.11-1.54,101.42,101.42,0,0,1-11.42-.31c-1.16-.12-4.25.34-4.66-1.16-.28-1,1.43-2.88,1.88-3.56,2.41-3.67,4.74-7.08,8.1-10a30.08,30.08,0,0,1,11.53-6.12c1.87-.57,17.16-4.43,15.89,1.38-.46,2.12,2.78,3,3.26.9Z" transform="translate(-45.33 -16.81)"/><path d="M602.76,83.23a188.41,188.41,0,0,1,36.06-15.42c11.79-3.58,23.7-5.45,35.86-7.24,22.94-3.39,49.23-2.89,68,12.68,17.56,14.57,22.15,39.24,18.21,60.8-4.08,22.3-14.58,43.45-27.3,62C711,229,678,256.94,640.05,270.24c-19.72,6.91-40.85,10.28-61.74,8.54-20.41-1.7-43.1-11-49.31-32.46-1.93-6.65-1.53-13.23-1.14-20,.37-6.52-.15-12.9,2-19.15,4.29-12.37,11.93-23.75,20.28-33.72,17.72-21.17,40.68-37.21,63.36-52.59,1-.68.09-2.29-1-1.64-22.69,14-45.25,28.86-63.11,48.91a146.51,146.51,0,0,0-20.67,29.82c-2.71,5.21-4.68,10.84-7.84,15.79a41.35,41.35,0,0,0-6.13,17c-1.73,12.65.33,25.32,7.89,35.82,7,9.69,16.82,16.59,27.87,20.89,23.11,9,50,5.74,73.47-.47,43.74-11.61,82.33-38.86,110.1-74.34s57.77-92.56,28.42-135.77c-16.68-24.55-47.31-32.37-75.5-29.51-15.65,1.58-30.25,6.69-44.84,12.32a301.74,301.74,0,0,0-41.59,19.92c-2.36,1.36-.25,5,2.13,3.64Z" transform="translate(-45.33 -16.81)"/><path d="M833.21,104.86c-2.52,13.56-16.15,19-25.89,26.53a.63.63,0,0,0,.44,1.08c14.77-1.51,30.14-9.87,33.12-25.5,1-5-6.73-7.13-7.67-2.11Z" transform="translate(-45.33 -16.81)"/><path d="M449,139c0,1,.17-.76,0,.23-.06.38-.09.28.07,0a5,5,0,0,1-.48.8c.31-.42.08-.21-.13.05s.6-.31-.11.07c-.11.06-.87.37-.39.22.26-.11.21-.11-.13,0l-.9.38c.87-.35-.44.14-.77.37-2,1.37-2.53,4.76,0,6,5.11,2.49,10.39-3.17,10.36-8.1a3.76,3.76,0,0,0-7.52,0Z" transform="translate(-45.33 -16.81)"/><path d="M150.19,139.74c6-12.49,16.51-21.49,27.74-29.18A294.38,294.38,0,0,1,213.7,90a262,262,0,0,1,79.6-24.75c14-2,29.5-3.19,42.75,2.85C348,73.51,355.5,83.82,356.31,97c.83,13.56-3,27.1-7.67,39.68A226.73,226.73,0,0,1,331,173.1c-14,23.68-31.52,44.83-49.75,65.35C262.12,260,242.35,280.13,217.45,295c-22.79,13.58-48.57,23.69-74.91,27.53-25.64,3.73-51.86-.32-69.36-20.94-20.43-24.08-25.43-58.86-20.36-89.24,5.18-31,20.83-58.57,41.54-81.83.57-.63-.35-1.57-.94-.94C54.24,171.68,31,232.11,55.24,287.71,61,300.84,68.9,312.93,81,320.92c11.1,7.31,24.38,10.57,37.53,11.26,28.07,1.49,56.91-7.68,81.92-19.75,27.13-13.09,50.71-31.77,71.2-53.73s40.3-45.13,57.47-69.91a256.39,256.39,0,0,0,22.5-38.89c6-13.07,11.8-27.38,14-41.66,2.11-13.63.46-27.7-8.67-38.57C348,59,334.22,54.11,320.72,52.82c-15.71-1.5-32.12,1.46-47.44,4.8a245.36,245.36,0,0,0-43,13.49c-14,5.9-27.68,12.78-40.1,21.56-11.83,8.37-23.64,16.85-32.8,28.23a75.67,75.67,0,0,0-10.33,17c-.93,2.12,2.13,4,3.16,1.85Z" transform="translate(-45.33 -16.81)"/></svg>